<?xml version="1.0" encoding="utf-8"?>
<!DOCTYPE svg PUBLIC "-//W3C//DTD SVG 1.0//EN" "http://www.w3.org/TR/2001/REC-SVG-20010904/DTD/svg10.dtd">
<svg version="1.0" xmlns="http://www.w3.org/2000/svg" width="4096px" height="4096px" viewBox="0 0 4096 4096" preserveAspectRatio="xMidYMid meet">
 <g fill="#000000">
  <path d="M2278 3510.60 c-13.20 -4.80 -13.20 -20.60 0 -20.60 7.80 0 14 5.20 14 12 0 7.80 -6.20 11.40 -14 8.60z"/>
  <path d="M1284.60 3411 c-6 -4.20 -34.60 -42.20 -38 -50.60 -2.20 -5.20 -2.20 -7.40 -0.40 -9.60 4.80 -5.80 11.40 -3 27.20 11.40 8.60 7.80 19.80 18.20 25.20 23 11 10 11.80 14.80 3.60 23 -6.60 6.60 -11.20 7.20 -17.60 2.80z"/>
  <path d="M2082 3354 c-20.40 -0.80 -42.40 -2.40 -49 -3.60 -6.60 -1.20 -22.80 -2.80 -36 -3.40 -13.20 -0.80 -38 -3.40 -55 -6 -17 -2.60 -43.60 -6.60 -59 -9 -15.40 -2.20 -35.40 -5.80 -44.60 -8 -9.20 -2.20 -28.60 -5.80 -43 -8 -14.60 -2.20 -34 -6.20 -43.40 -9 -9.40 -2.60 -20.60 -5.40 -25 -6 -4.40 -0.80 -18.20 -4 -30.60 -7.20 -12.60 -3.20 -34.20 -7.60 -48.20 -9.80 -14.20 -2.20 -29.20 -5.20 -33.60 -6.80 -4.40 -1.60 -13.20 -3.80 -19.80 -5 -11.40 -2.20 -23.20 -5.80 -85.80 -25.40 -64.40 -20.20 -171 -57.80 -202 -71.20 -7.60 -3.40 -36 -15 -62.80 -25.80 -26.80 -11 -60 -25.60 -74 -32.80 -25.40 -13 -72.20 -39.80 -83 -47.80 -3.40 -2.20 -18.60 -10.60 -34 -18.40 -31.40 -15.80 -35.60 -20 -31.20 -31 3.60 -8.60 10.60 -9.60 22.80 -3.20 5.60 3 14.80 6.40 20.20 7.80 18.40 4.20 54.60 19.40 99.60 41.40 24.40 12.20 57.60 26.80 73.60 33 16 6 43 16.80 60 24 17 7 38 15.60 46.80 19 8.80 3.20 20.60 7.60 26 10 5.60 2.20 22.60 8.60 38 14.40 15.40 5.60 33.40 12.60 40 15.40 6.60 2.80 18.80 7 27 9.60 8.20 2.40 28 9.20 44 14.80 27.80 10 62.20 21.20 82.80 27.20 5.40 1.40 19.20 4.20 30.60 5.80 11.60 1.80 32.80 6.60 47 11 46.40 14 154 39.40 198.60 47 15.40 2.60 33.80 6.60 40.80 8.80 7 2.40 17.40 4.20 23 4.20 21 0 74.60 7.60 99.40 14.20 11 2.80 41.60 6 77.80 8 56.40 3 62 4 62 11.80 0 6.20 -6 9 -19.80 9.20 -7.20 0.20 -20 0.60 -28.20 1.20 -8.20 0.60 -31.60 0.40 -52 -0.40z"/>
  <path d="M2355.60 3242 c-4.20 -2.60 -4.80 -12.60 -1 -15.60 1.20 -1.20 9.80 -5.40 19 -9.40 15.80 -6.80 17 -7.20 21.60 -4 8.80 5.60 4 19.20 -9.20 26 -7.60 4 -26 5.60 -30.40 3z"/>
  <path d="M2668.80 3173.40 c-2.40 -6.20 27.20 -39.40 35.20 -39.40 4.20 0 10 7 10 12.40 0 5.60 -11.60 17 -22.60 22.40 -14.60 7 -21 8.40 -22.60 4.60z"/>
  <path d="M2405 3146 c-2.40 -2.60 -3 -5.40 -2.20 -8.80 1.60 -6.20 14.40 -28.60 19.80 -34.60 5 -5.60 15.40 -6.20 20 -1 6 6.60 4 13 -9.60 29.80 -15.80 19.80 -20.80 22.40 -28 14.60z"/>
  <path d="M2055 3132.60 c-3.20 -0.40 -14 -3 -24 -5.60 -9.80 -2.60 -24.80 -5.80 -33 -7 -8.20 -1.40 -19.40 -4.20 -25 -6.20 -5.40 -2.20 -15.40 -5.20 -22 -6.80 -13.80 -3.60 -44.40 -14.80 -62 -23 -6.60 -3 -15 -6.20 -18.60 -7 -7 -1.40 -44.80 -19.20 -104.40 -49 -39.40 -19.60 -91.20 -50 -106 -62.20 -5 -4 -11.80 -8 -15.40 -8.60 -3.60 -0.80 -9.80 -4.20 -13.80 -7.40 -4 -3.20 -10.60 -7.80 -14.60 -10.20 -11.20 -6.60 -16.20 -11.80 -16.20 -17 0 -6.40 7.20 -9 17 -6.40 12.20 3.40 80 38.60 98.20 50.80 5.60 3.80 12.40 7 15.20 7 3 0 9.40 3.20 14.60 7.20 5.20 4 13.40 8.40 18.20 9.80 4.80 1.40 12 5.40 15.60 8.60 4 3.60 10.40 6.60 15.20 7.40 4.40 0.80 12 4.40 16.80 8 4.60 3.40 11.80 7 15.80 7.80 4 0.80 11.20 4.40 16 8 5 3.80 11.80 7 16.60 7.60 4.60 0.60 11.80 3.60 16.20 6.40 4.40 2.80 14.40 7 22.40 9.20 7.80 2.20 19 7.20 24.60 11 7 4.80 12.40 7 17.40 7 4 0 10 1.40 13.20 3.20 16.60 9.20 23.20 11.60 38 14.20 10 1.80 18.80 4.60 23.60 7.80 12.20 8 17.40 9.40 37.40 9.60 16 0.40 20.80 1.20 29 5.20 11 5.60 14 12.60 8 18.80 -3.20 3.20 -18.20 4 -34 1.80z"/>
  <path d="M1901 2928.80 c-33.40 -8 -68.20 -23.80 -70.20 -32 -0.60 -2.40 -0.60 -5.60 0.20 -6.60 2 -3.60 14 -2.60 25.40 2 8.20 3.20 14.60 4.20 27.60 4.20 22.80 -0.40 30.60 2 41.20 12.60 9 9 11 16 6.40 20.60 -3.20 3.20 -15.60 2.80 -30.60 -0.80z"/>
  <path d="M1639 2652.60 c-2.20 -0.60 -13 -5.20 -24 -10 -11 -5 -30.60 -13.40 -43.60 -18.60 -13 -5.40 -30.80 -14.40 -39.40 -20 -23.40 -15.40 -26.60 -25.40 -14.80 -47.40 2.60 -5 4.80 -11 4.80 -13 0 -7 5.60 -14.60 17.80 -24.40 8.20 -6.40 12.20 -10.80 12.20 -13.80 0 -2.40 1.80 -7.20 4 -10.80 3.20 -5.40 6.40 -7.20 18.40 -10.60 8 -2.40 27.60 -8.40 43.40 -13.20 33.60 -10.60 53.80 -14.80 71 -14.80 13.80 0 31 -5 44 -13 18.60 -11 51.40 -45.20 64.80 -67.60 8.60 -14.40 21 -48.80 19.40 -54.80 -1.80 -7.40 -8.60 -9.40 -36 -10.80 -23.40 -1 -27.40 -1.80 -41 -7.80 -25.20 -11 -41 -21.40 -56.80 -38 -12.20 -12.80 -17 -19.80 -25 -36.40 -5.40 -11.40 -11.20 -25.60 -13.20 -31.60 -2 -6 -7 -18.40 -11.20 -27.60 -12 -25.40 -9.60 -40.40 6.40 -40.40 9.40 0 22.80 14 24.80 26 0.80 5 4.80 15.40 9 23 4.20 7.80 10.40 21.40 13.80 30.20 6.60 17 12.20 24 25.20 30.40 9.40 4.60 29.80 8.40 45.60 8.40 15 0 18.40 -3.20 34.60 -34 7.20 -13.80 17.20 -30.60 22 -37.20 17.60 -24.80 51.80 -51.40 76.60 -59.80 28 -9.20 34.20 -17.80 49.20 -68 6.60 -21.80 11.20 -29.80 18.80 -33 9.60 -3.80 17.60 3.20 28.80 25.20 7.20 14.40 18.40 23.20 39 30.80 15.60 5.80 20.60 6.60 49.40 8.20 36.40 1.80 47.20 4.80 50.80 13.60 5.40 12.60 -3.20 19 -33.60 25.20 -33.80 7 -54.40 23.20 -82.20 65 -4.80 7.20 -20.60 27 -35.20 44 -26 30.20 -35.80 43.20 -65 86 -7.80 11.60 -15.60 22.60 -17.20 24.40 -1.60 1.80 -10 16.80 -18.40 33 -14.20 27.40 -32 55.40 -68.80 108.60 -7.80 11.40 -22.80 29.80 -33 40.60 -26.60 28.20 -52.40 64.80 -72.40 103 -3.60 6.80 -10 15.60 -14.20 19.40 -11.40 10.20 -33.40 15.40 -48.80 11.60z"/>
  <path d="M1833.40 2027.60 c-8 -7 -8 -15.80 -0.20 -21 4.40 -2.80 11.20 -3.60 38.80 -4 19 -0.40 35.80 0.20 38.80 1.40 7.80 2.80 10.60 10.60 6.40 16.80 -4.40 6.80 -12.80 8.60 -48.40 10.20 -29.80 1.20 -30.40 1.20 -35.40 -3.40z"/>
  <path d="M1964.20 2004.80 c-5 -6.40 -5.20 -9.60 -1 -21 1.60 -4.80 5.20 -19.60 8 -32.80 2.60 -13.20 6.20 -29 7.80 -35 1.60 -6 5.20 -23.20 8 -38 6.40 -32.80 9.20 -39.60 23.80 -55.40 16.80 -18.40 24.80 -20.60 84.80 -22.80 61.80 -2.20 93.40 -7.20 114.80 -18 20.20 -10.20 27.80 -17.20 41.20 -37.80 11.80 -18.20 17.20 -30 19.40 -43.40 1.20 -7.60 0.80 -9.20 -4.40 -14.20 -5.40 -5.40 -31.80 -15.40 -73.80 -28.20 -15.20 -4.60 -90.80 -41.20 -108.20 -52.60 -15 -9.40 -34.60 -32.20 -34.60 -39.60 0 -7.40 5.80 -10.80 15.80 -9 4 0.60 21.60 8.40 39.20 17 39 19.40 106.80 44 120.80 44 2.80 0 17 -3.20 31.20 -7 19.80 -5.40 33 -10.60 56 -22.20 47.60 -24.20 78 -45.80 121.60 -86.60 12 -11.20 23.20 -20.20 25.20 -20.20 5.80 0 12.20 8.60 12.20 16.20 0 16.20 -16.60 41.40 -57.40 87.40 -29.80 33.40 -70.60 69.20 -87.80 76.60 -4.60 2.20 -9.20 4.80 -10.20 6.20 -1 1.40 -3 9.60 -4.20 18.20 -4 26.40 -19.40 69.60 -33 93.40 -18.80 32.20 -40.80 67.60 -50.60 81.40 -14.40 20.20 -27.40 26 -50 22.40 -11.80 -2 -17 -2 -32.20 0.80 -29.20 5.40 -40.20 4 -53.60 -6.60 -7 -5.60 -8.60 -6 -21.80 -5.40 -11 0.20 -15.60 -0.40 -19.80 -3.20 -8 -5.20 -7.40 -14 1.60 -22.20 3.80 -3.60 7 -7 7 -7.80 0 -2 -13 -1.60 -18.80 0.60 -7.40 2.80 -6.60 8 4.60 31 15 30.40 18.80 43 19 64 0.20 24.40 -6 45 -16.80 55.40 -9 8.40 -25.60 15.20 -40.60 16.60 -38.40 3.40 -38.80 3.40 -43.20 -2.20z"/>
  <path d="M1715.40 1848.40 c-2 -2 -3.40 -6.40 -3.40 -9.80 0 -9.80 5.60 -13 26.20 -14.80 17.40 -1.60 27.80 -5.40 27.80 -9.80 0 -1 -2.60 -3.20 -6 -5 -4.20 -2.20 -12.20 -3 -30 -3 -27 0 -37.20 -2.80 -39.20 -11 -3 -12 3.60 -17 22.20 -17 14.80 0 23.40 2.40 33.20 9.20 5.60 3.80 11.80 5.80 22.20 7 22.40 2.60 61.40 5.80 94.60 7.80 44.80 2.60 63 9 53.20 18.80 -3.60 3.40 -7.20 3.80 -33.60 4.20 -26.60 0.40 -31.20 1 -45.60 6 -13.80 4.80 -20.60 5.80 -50.80 7.20 -33.20 1.60 -35.40 2 -46.40 7.80 -13.40 6.80 -19.80 7.60 -24.40 2.40z"/>
  <path d="M1799.20 1684.80 c-3.80 -3.80 -4 -9 -0.60 -13 12.60 -15.40 68.20 -46.80 100.20 -56.40 8.80 -2.80 25.40 -7.80 36.40 -11.20 11.20 -3.40 24.40 -6.20 29.20 -6.20 5 0 14.20 -1.80 20.40 -4 8.60 -2.80 12.60 -3.40 15.40 -1.80 6.60 3.40 4.20 9.60 -8.60 23 -12 12.20 -13.60 13.20 -31.80 18.80 -10.60 3.40 -23 8.80 -27.80 12.20 -10.40 7.60 -20 11.80 -27.40 11.80 -6.80 0.20 -41 10.40 -72.60 21.80 -25.60 9.20 -28.40 9.60 -32.80 5z"/>
 </g>
 <g fill="#ffffff">
  <path d="M1497 3580.60 c-2.20 -0.60 -9.80 -5 -17 -9.60 -13.20 -8.80 -25.60 -21.20 -45.80 -45.20 -5.80 -7 -23.20 -24.60 -38.40 -38.80 -15.40 -14.40 -30.80 -30.60 -34.60 -36 -9 -13.20 -39.80 -43 -44.40 -43 -2.20 0 -7.20 -0.60 -11.40 -1.40 -7.60 -1.20 -7.60 -1.20 -6.20 4.60 2.20 10 8.80 21.40 18.60 32 10 11 18 21.20 26.60 33.80 3.20 4.40 9.60 13.40 14.40 20 5 6.60 11.40 16 14.60 21 5.40 9.20 11.40 17 25.20 33.20 8 9.80 9.40 17 4.60 24 -2.80 4 -4.60 4 -43.60 3.40 -34.40 -0.40 -42 -1.20 -50.60 -4.40 -8.60 -3.40 -20.40 -4.40 -83 -7.20 -92.20 -4 -111.20 -5.60 -120.60 -9.80 -4.80 -2 -17.60 -4 -35 -5.20 -39.20 -3 -54.40 -5.20 -65.60 -10 -6.80 -3 -17.20 -4.80 -34.60 -6.20 -34.80 -2.60 -48.60 -4.80 -65 -10.40 -7.80 -2.80 -23.20 -6.40 -34.20 -8 -11 -1.80 -24 -5 -29 -7.20 -5 -2.20 -17 -5 -27 -6.20 -9.80 -1.40 -24.80 -5 -33 -8 -8.20 -3.20 -22.40 -7 -31.60 -8.80 -9.20 -1.60 -21.80 -5.40 -28 -8.20 -6.20 -3 -18.80 -6.60 -28 -8.20 -28.60 -5 -38.40 -12.80 -38.40 -31.20 0 -15.40 4 -34.40 9.80 -46.60 3.20 -6.80 6.20 -17.20 6.80 -24 0.80 -8.20 3.40 -16.40 8.40 -25.60 3.80 -7.40 7 -16.20 7 -19.20 0 -11 2.60 -18.20 9 -25 4.60 -4.80 7 -9.80 7.80 -16 1 -6 3.80 -11.80 8.20 -17.20 3.80 -4.60 7.20 -11.20 8 -16 0.80 -5 3.60 -10.40 7.20 -14 3.20 -3.20 7.40 -9.20 9 -13.40 1.80 -4.20 5 -9.60 7.40 -12.20 2.40 -2.40 6 -8 8.40 -12.40 11.60 -22.20 82.20 -93 107.80 -108 4.80 -2.80 11.40 -7.40 15 -10.40 3.60 -3.20 7.60 -5.60 9.20 -5.60 1.40 0 7 -3.60 12.20 -8 5.40 -4.40 12.60 -8.60 16.20 -9.20 3.60 -0.60 10 -3.80 14 -7 4 -3.20 12.20 -7.20 18.20 -9 5.80 -1.80 15 -5.80 20.40 -9.20 8.20 -5 12.80 -6.20 31.20 -8 12 -1.20 22.60 -3 23.60 -3.80 1.80 -1.60 -9 -22 -13.40 -25.20 -1.20 -1 -6.40 -3 -11.40 -4.40 -5.20 -1.60 -11.60 -5.40 -15.40 -9.40 -4.40 -4.80 -9 -7.40 -15.40 -8.60 -9.40 -1.80 -22.80 -8.80 -33 -17.40 -4.60 -3.80 -6.20 -6.80 -6.20 -11.60 0 -9.80 10.20 -22.60 21.60 -27.40 5.20 -2.20 14.40 -6.40 20.40 -9.60 6.20 -3.20 18.60 -7.20 27.60 -9 9 -1.80 20.80 -5.40 26.40 -8.20 5.60 -2.80 16.60 -6 25.40 -7.20 19 -2.60 29.40 -6.60 35.80 -14.40 4.40 -5.20 4.80 -7.40 4.80 -27 0 -23.80 2.20 -34.40 8.80 -43.40 2.60 -3.20 5.80 -9.60 7.20 -14 3.20 -9.60 28.20 -36.40 43.40 -46.20 5.60 -3.80 10.80 -7.60 11.60 -8.60 0.60 -1 6 -3.80 12.20 -6.20 6.20 -2.20 13.80 -6.60 16.80 -9.80 5.40 -5.40 13.20 -8.20 22.80 -8.20 2.40 0 7.60 -2.20 11.20 -5 3.80 -2.80 12.80 -6.80 20 -9 18.20 -5.40 24 -11.80 24 -26.20 -0.20 -23.60 -3.80 -47.60 -9 -57.60 -6.80 -12.80 -10 -39.60 -6.20 -49.20 3.60 -8.20 6.60 -9.80 27.40 -14.80 9.20 -2.20 21.80 -5.40 27.80 -7.20 14.40 -4.40 76.80 -6 130 -3.60 34 1.60 40 2.40 47.40 6.20 11 5.60 17.80 5.60 27.60 -0.60 9.20 -5.60 17.40 -6.40 21.80 -1.80 4.60 4.40 4 12.80 -1.80 25.20 -6.20 13.20 -6.20 17.80 -0.40 23 7.40 6.80 29.20 20.20 37 22.80 4 1.20 22.80 9 41.80 17 35.80 15.40 43.40 17 56.80 12.60 9.80 -3.40 14.80 -8.60 23.80 -25.20 16.60 -31 45.60 -72 66.80 -94.60 30.40 -32.40 84.40 -111.20 105.40 -153.40 6.80 -13.60 16 -30 20.60 -36.20 4.60 -6.20 12.60 -17.60 17.80 -25.40 23.60 -34.60 40.20 -56.80 64.40 -85 14.40 -16.60 31 -37.60 37 -46.60 14.40 -21.80 41.60 -48.80 57.20 -57 6.80 -3.60 18.80 -7.80 26.60 -9.60 23.20 -5.20 17.40 -8.80 -14.40 -8.80 -16.80 0 -22.40 -1 -42 -7.20 -31.40 -10.20 -42.80 -18.60 -54.40 -40.40 -9.60 -18.20 -11.80 -16.60 -22.80 16.60 -11.20 33.40 -15.60 42.40 -25.20 50.60 -8.60 7.80 -14.60 10.80 -30.80 16.40 -15.40 5 -31.60 15.80 -49.40 32.60 -15.40 14.40 -23.80 26.20 -39.60 56.40 -14.60 27.80 -19.80 34.60 -30 39.20 -9.80 4.40 -20.60 4.80 -43.20 1 -20.20 -3.40 -24.60 -5 -39 -14.20 -6 -3.80 -11 -6 -11 -5 0 1 5.80 8.20 13 15.80 11.20 11.80 16.80 15.80 36.20 25.60 l23 11.60 25.40 1 c31.20 1.40 43 6 49.20 18.80 3.80 7.80 3.80 8 -0.60 23 -12 40.60 -20.40 54.40 -55.20 89.40 -21.60 22 -30.80 29.80 -40.40 34.60 -16.40 8.20 -32.40 12.20 -48.60 12.20 -15.80 0 -33.40 3.60 -58 11.80 -10.20 3.60 -29.20 9 -42.40 12.40 -23 6 -23.80 6 -33 3 -22 -7.60 -25.20 -22.60 -7.20 -33.40 4.20 -2.40 10.20 -6.60 13.20 -9.20 3 -2.40 9.40 -5.40 14 -6.60 4.60 -1.20 13.20 -3.60 19 -5.40 9.60 -3 11.60 -3 24 0 20 4.60 32.40 0.80 32.40 -10 0 -9.60 -3.20 -12 -22.40 -16.60 -10.20 -2.60 -24 -7.20 -30.60 -10.40 -15.40 -7.20 -21.80 -7 -36.20 0.60 -12.20 6.60 -28.60 9.40 -41.20 7 -3.80 -0.60 -10.40 -4.20 -14.80 -8 -4.20 -3.60 -10.40 -7.20 -13.60 -8 -8.40 -2 -24.40 -20.40 -31.20 -35.60 -2 -4.80 -5.80 -10.60 -8.20 -12.80 -5.80 -5.20 -9.80 -15 -9.80 -24.40 0 -4.40 -1.40 -11.80 -3 -16.40 -5.40 -15.40 -5.80 -27.80 -1.40 -44 2.40 -8.20 4.80 -19.40 5.40 -25 1.80 -14 4.40 -21.40 10 -29 2.80 -3.80 5 -9.20 5 -12.20 0 -7.80 3.40 -16 9 -21.80 2.60 -2.80 6.20 -8.60 7.60 -13.20 4.60 -12.40 16.40 -27.40 42.40 -53.80 13.20 -13.20 26.20 -28.40 29 -33.40 4.40 -8.40 4.60 -10.20 2.40 -16.20 -4 -11 -3 -19.80 3.40 -29.80 3.20 -5 8.20 -10.80 11.20 -12.80 2.80 -2.20 7.80 -5.80 11 -8.40 3.20 -2.40 11 -6.40 17.20 -8.60 6.40 -2 14 -6 16.80 -8.80 2.80 -2.60 9 -6.20 14 -8 5 -1.80 11.20 -5.40 14 -8 7.60 -7.20 24.20 -18.80 32 -22.20 3.80 -1.80 10.20 -6 14 -9.60 9.20 -8.80 29.80 -22.40 36 -24.20 8.40 -2.40 12 -7 12 -15.40 0 -5 -1 -8.20 -3 -9 -5.80 -2.20 -21.80 4 -30.20 11.80 -4.40 4.20 -11.60 9 -15.80 10.60 -4 1.80 -12 6.40 -17.40 10.20 -5.60 3.80 -11.60 6.80 -13.40 6.80 -3.40 0 -4.80 0.80 -28.20 14 -8.20 4.80 -20 11.40 -26 14.60 -6 3.40 -13.60 8.20 -16.60 10.60 -3 2.60 -9.40 5.80 -14 7.20 -4.60 1.20 -11.80 5.40 -16 9 -12.60 11 -19 8.60 -31.60 -11.80 -7.20 -11.40 -7.80 -13.80 -7.80 -26.60 0 -11.40 1 -16.20 5.80 -26 3.40 -6.60 6.40 -14.40 7 -17.40 0.80 -3 4.80 -9.40 9 -14.40 4.40 -5 9 -10.60 10.60 -12.60 1.40 -2 6 -6.20 10.20 -9.20 11.80 -8.80 17 -15.40 19.20 -24.20 1 -4.60 4.60 -12.20 8 -17.20 4 -6.20 6.80 -14.40 9 -26 1.80 -9.40 4.60 -21.40 6.20 -26.60 2.20 -7.40 2.40 -12 1 -18.60 -1.60 -7.20 -1.20 -11.80 2 -24.40 3.40 -12.80 4.20 -20.60 3.80 -45.40 -0.20 -16.40 0.60 -48.20 1.80 -70.40 2 -36 2.80 -41.80 7.40 -53 3.80 -9.40 5.60 -18.80 7.20 -36.60 2.20 -25.40 4 -33.80 10 -44 2.40 -3.80 5 -15.20 6.80 -28.80 2.60 -19.40 3.80 -23.80 9 -30.80 3.20 -4.60 6 -10.40 6 -13.20 0 -6.40 6.20 -20.20 10.80 -24 1.80 -1.60 4.20 -6.80 5.60 -11.60 1.20 -5 5 -13.20 8.60 -18.20 3.40 -5.20 7 -12.80 7.80 -17 0.80 -4.40 4.40 -10.80 8.20 -15 3.60 -4.20 7.20 -10.80 8 -14.60 0.80 -4 4.80 -11.60 9.20 -16.80 4.20 -5.20 7.80 -10.20 7.80 -11.20 0 -1 3 -5.20 6.80 -9.20 3.60 -4.20 7.20 -10 8 -13.20 3.80 -15.60 108 -118 129.60 -127.20 4.80 -2 10 -5.20 11.40 -7 1.60 -2 8.40 -6 15.20 -9 6.80 -3.20 13 -6.80 13.80 -8 0.80 -1.20 6.60 -3.60 12.80 -5.40 6.20 -1.80 16.60 -6 22.80 -9 6.40 -3.20 17.60 -7.20 25 -8.80 7.60 -1.40 18.60 -5 24.60 -7.80 6 -2.80 20 -6.40 31 -8.20 11 -1.80 27.20 -5.40 36 -8 17.60 -5 59.80 -11.20 76.60 -11 6.80 0 13.40 -1.40 18.80 -4.20 6 -3 12.80 -4.40 24.40 -4.80 9 -0.20 29.80 -1.60 46.20 -2.80 59.40 -4.20 123.60 -1.60 145 6 15 5.40 21 7.20 34.40 9.40 6.20 1.20 14.80 4.40 19.20 7.40 4.40 2.80 12.20 6.60 17.60 8.20 5.20 1.60 12.40 5 16 7.80 3.80 2.80 10.40 6.40 14.80 8 4.40 1.60 11 5.20 14.80 8 3.60 2.80 11.80 6.80 18.20 9 6.40 2.20 14.80 5.80 18.60 8 3.80 2.40 13.20 5.40 20.80 7 7.60 1.60 17.80 5.40 22.60 8.20 5.20 3 14.40 5.80 22.40 7 9.20 1.20 16.80 3.80 23.20 7.80 5.20 3.20 15.20 7.40 22 9 6.80 1.80 16 5.80 20.40 8.80 4.40 3.20 12.60 7.20 18.40 9 5.60 1.80 11.40 4.60 12.60 6.20 1.20 1.40 6.20 4.60 11 6.80 4.80 2.20 11.80 6.60 15.40 9.80 3.60 3.20 8.80 7 11.20 8.20 2.60 1.40 11.60 8.60 20 16 8.60 7.40 18.20 15.40 21.80 17.80 4 2.80 7.40 7.80 9.40 13.60 1.60 5 5.80 12.40 9 16.60 3.60 4.60 6.60 11.20 7.40 16.40 0.60 4.80 3.20 12 5.80 15.80 7.40 11.80 7.80 15.20 2.40 26.60 -2.80 5.80 -6 14.40 -7.40 19.20 -3 11.20 -32 42 -45.80 48.60 -5 2.40 -11.40 6 -14.20 8 -2.80 2 -11.20 5 -19 6.80 -7.60 1.80 -18.20 5 -23.40 7 -18.20 7.40 -28.80 3 -27.60 -11.80 2.20 -25.80 0.20 -29.20 -16.20 -28 -8.40 0.60 -13.60 2.40 -19.60 6.40 -4.40 3 -11.80 7 -16.40 8.60 -4.60 1.60 -12 5.60 -16.20 9 -4.20 3.20 -11.80 7.20 -16.60 8.80 -5 1.40 -12.20 5 -16 7.80 -3.80 3 -10.80 6.60 -15.40 8 -4.80 1.40 -12.20 4.80 -16.20 7.60 -4.20 2.80 -10.40 5.80 -14 6.40 -3.60 0.80 -9.60 4.40 -13.40 8.20 -3.80 3.60 -11 8 -16 9.80 -10.20 3.60 -12 5.60 -12 14.20 0 9 3.60 11.40 14.40 9 5 -1.20 20 -3.40 33.20 -5.20 13.40 -1.80 29.40 -5 35.60 -7 20.80 -7.20 71 -14 80.60 -11 5.40 1.60 22 26.80 25.40 38.60 1.60 5 5 11.60 7.80 14.40 5.40 5.60 9 14 9 20.80 0 2.40 2.40 6.60 5.20 9.40 6.40 5.80 10.80 15.60 10.80 23.40 0 3.40 2.40 9 6 13.40 5 6.40 10 18 10 23.60 0 0.80 3 5.80 6.60 11.20 4.80 6.80 7.60 14.60 10.40 27.20 3.60 17.40 3.60 17.80 -0.20 24.80 -5.20 9.60 -14.60 15.60 -27.40 17.20 -5.60 0.80 -16.60 4 -24 7.40 -7.40 3.20 -21.40 7.20 -30.80 8.80 -9.80 1.80 -19.80 4.80 -23 7 -3 2.20 -10.60 5.80 -16.80 7.80 -6.40 2.20 -13 5.20 -14.60 6.80 -5.40 4.60 -14.80 8.60 -25.80 11 -5.80 1.20 -13.80 4.40 -18 7.20 -4 2.60 -11.20 6.20 -16 7.80 -4.60 1.60 -11.80 5.80 -16 9.20 -5.60 4.40 -10.60 6.40 -18.40 7.40 -13.20 1.60 -18 5.80 -18 16.40 0 9.40 1.60 10.80 17 15.20 6.60 1.80 17.40 6.20 24 10 6.60 3.60 17 7.60 23 8.80 6 1.20 14.60 4.80 19 7.80 4.40 3.20 11.80 6.80 16.60 8.20 4.60 1.20 11.40 5 15 8.20 3.60 3.20 9 6.40 11.80 7 3 0.80 10 4.40 16 8.20 7.60 5 12 6.60 15.40 5.80 7.40 -1.80 25.60 -18.40 28 -25.60 1.40 -3.40 4.60 -8.80 7.40 -11.60 3.60 -3.80 6.20 -9.80 8 -19.20 1.60 -7.40 4.60 -15.80 6.60 -18.60 2 -2.80 5.20 -8.20 7.20 -12 5.20 -10.40 13 -18 18.60 -18 7.80 0 25.60 16.60 29.20 27.40 1.60 5 6.20 12.60 10.20 16.80 3.80 4.20 7 9 7 10.40 0 1.40 3 7.20 6.80 13 3.80 5.80 7.40 13.80 8 17.60 0.80 3.80 4 10 7.40 13.60 3.20 3.80 7.20 10.60 8.80 15.20 1.60 4.60 5.60 11.40 8.80 15.20 3.80 4.20 6.40 10 7.20 15.80 1 5.40 3.80 12 7.20 16.20 3.20 4 6.80 11 7.80 15.60 2.60 9.80 4.60 14.20 10.80 22.60 2.60 3.40 5.60 11.80 7 18.20 1.20 6.60 4.20 14.40 6.40 17 5.60 7.20 9.80 18.20 9.80 25.80 0.20 3.60 2.80 11.60 6 17.60 9.40 17.20 7.40 30 -6.80 45.80 -5.60 6.40 -30.60 18.20 -38.20 18.20 -3.20 0 -12.20 -3 -20 -6.80 -7.60 -3.80 -19.80 -9.60 -27 -12.80 l-13 -6 -39 1 c-21.40 0.60 -40.20 2 -41.40 3.20 -3.20 2.40 -3.40 17.60 -0.40 24 3.40 7.60 14.40 11.80 26.80 10.40 21.80 -2.80 25.60 3.20 23.80 37.40 -1.40 24.80 -4 31.20 -18.20 43.60 -5.60 5 -8.40 6 -17.40 6 -7.80 0 -13.40 1.40 -21.40 5.80 -12.60 6.60 -17.60 8 -37.60 10.20 -17.20 2 -20.20 4.40 -20.20 17 0 14.40 6.40 16.60 19.60 6.80 7.60 -5.60 10.60 -6.40 30 -8 35.20 -3.20 41.60 -3 46.20 1.20 3 2.60 4.20 6 4.20 12.20 0 8.40 -1.60 10.80 -13.60 20.20 -3.20 2.60 -5.20 7.20 -6.80 16.20 -3.20 17.60 1.80 37.80 12.40 49.60 4.20 4.60 8.20 11.20 9 15 0.80 3.80 4 10.80 7 15.80 6 9.40 7 14.80 6.40 36.40 -0.40 11.80 -1.20 14.20 -7.40 22 -13.40 16.60 -16.60 19.20 -25.40 20.60 -4.80 0.80 -12.20 3.60 -16.60 6 -11 6.20 -28 8.80 -68 10.20 -41.20 1.60 -80.40 -1.40 -96.60 -7.40 -12 -4.40 -22.80 -7.20 -49.40 -13 -8.80 -1.80 -20 -5 -25 -7.20 -4.80 -2.20 -15.20 -5 -23.20 -6.60 -7.80 -1.40 -19.40 -5 -26 -7.60 -6.40 -2.80 -19.40 -6.40 -28.80 -8.40 -9.40 -1.80 -23.20 -5.80 -31 -8.80 -7.60 -3 -19 -6.20 -25 -6.80 -6.80 -0.80 -14.40 -3.40 -20.40 -7.40 -5.40 -3.20 -15 -7.40 -21.20 -9.20 -6.20 -1.80 -15.20 -5.40 -20 -8.20 -9.80 -5.60 -34.40 -10.40 -57.60 -11 l-15.80 -0.60 0.40 8 c0.60 9.20 3.60 12 14.60 13.80 5.20 0.80 10.80 3.80 15.60 8 4.20 3.80 9.80 7.40 12.40 8.20 2.80 0.60 12.60 6.60 22 13 9.40 6.60 22.60 14.60 29.20 17.80 6.80 3.20 13.60 7.60 15 9.80 1.60 2 7.40 6.20 13.20 9 5.60 3 10.80 6.20 11.60 7.40 0.80 1.20 5.40 4.20 10.60 6.80 5.20 2.60 11 6.60 13.20 9 2 2.20 8.40 5.40 14 7 5.80 1.80 12.60 5.40 15.20 8.40 2.80 2.80 7.80 6.60 11 8.20 3.40 1.60 8.20 5 11 7.60 2.80 2.40 8.40 5.60 12.80 7 4.20 1.40 11 5.40 15 9 4 3.60 11 8.40 15.60 10.80 4.60 2.20 9.80 6.20 11.40 8.60 4.20 6 4.20 18.40 -0.20 21.80 -1.80 1.60 -5.20 7.40 -7.80 12.80 -2.40 5.60 -7 12.60 -10.40 15.60 -4 4 -6.40 8.40 -7.20 14.20 -0.80 5.40 -4 11.80 -8.80 17.80 -10.80 13.60 -15.80 21 -21.60 33.40 -2.80 6 -7.80 13.80 -11 17.40 -3.20 3.80 -5.80 8.60 -5.80 10.80 0 5.20 -4.60 13.80 -9.80 18.60 -2.20 2 -5.40 8.40 -7 14 -1.80 6 -5.60 12.60 -9 16 -3.40 3.20 -6.60 8.20 -7.20 11 -0.60 3 -4.20 9.80 -8 15.20 -3.80 5.40 -7 10.80 -7 12.40 0 1.40 -3 6 -6.80 10 -3.60 4.20 -8.60 11.60 -11 16.60 -4.60 9.80 -14.80 24.80 -24 35 -3 3.60 -6.20 9.60 -7 13.40 -0.60 3.80 -4.20 10.40 -7.80 14.80 -3.60 4.20 -7.80 10.60 -9.20 14.20 -1.40 3.40 -4.40 8 -6.60 10 -2.20 2 -6.20 8.20 -8.60 13.80 -2.60 5.60 -5.60 11 -7 11.80 -1.20 0.80 -5 7.20 -8.20 14.40 -6.40 14.40 -12.80 18.60 -28.20 18.60 -4.80 0 -15.40 1.80 -23.60 4 -18 4.80 -30.60 5 -50.20 1 -8.20 -1.60 -33.20 -3.80 -55.80 -5 -59.80 -3.20 -71.80 -4.60 -81.40 -9.60 -10.80 -5.60 -23.20 -5.80 -28.60 -0.40 -5.40 5.40 -5 8.80 1.60 16 6.80 7.60 15.60 9.80 40.20 10 23.80 0 57.60 4.80 74.20 10.60 12.40 4.20 15.80 4.40 70 4 54.80 -0.20 57.60 -0.40 72 -5.20 8.20 -2.60 19.80 -6 25.40 -7.40 7.40 -1.60 12 -4.20 15 -8 11.40 -14.40 17.20 -23.60 19.60 -31 1.40 -4.40 4.60 -10.60 7.20 -14 2.40 -3.20 5.40 -9.80 6.60 -14.20 1.20 -4.60 5 -11.60 8.20 -15.80 3.20 -4.20 7 -11 8 -15.20 1.20 -4.40 4.80 -10.80 7.80 -14.40 3.20 -3.40 7.60 -10 9.80 -14.60 2.20 -4.40 5.60 -9.20 7.40 -10.80 1.80 -1.60 5.20 -6.40 7.40 -10.80 2.20 -4.60 6.40 -10.80 9 -14 2.60 -3 6 -8.60 7.40 -12.20 1.60 -3.60 6.20 -9 10.20 -12.20 4 -3.20 11.60 -9.20 16.60 -13.20 5.20 -4.20 10.20 -7.60 11.40 -7.60 1.20 0 6 -3.60 10.60 -8 10 -9.80 19.60 -10.80 27.40 -3.20 4.60 4.80 4.80 5.20 3.80 34.40 -1.60 49.40 -4.80 78.40 -10 91.20 -5.20 12.40 -6.20 25.40 -2.40 29.20 1.40 1.40 6.60 2.40 12 2.40 8 0 10 -0.80 13 -5.40 5 -7.60 54.40 -56.60 57 -56.60 1.20 0 6.40 -4.40 11.80 -10 10.60 -11 17.20 -12.60 25.60 -6.80 4.20 3 4.60 4.40 3.60 13.60 -2.80 25.40 -5.20 37 -9.80 46.20 -2.80 5.60 -6.60 18.20 -8.40 28 -2 10.40 -5.80 21.80 -8.80 27 -2.80 5 -5.80 13.40 -6.80 18.80 -0.80 5.40 -3.80 13.40 -6.60 17.60 -3 4.40 -6.60 14 -8.20 21.60 -3.40 16.40 -4.40 19.20 -10 27.40 -2.40 3.40 -4.80 10.80 -5.60 16.20 -0.80 6 -3.40 12.60 -7 17.60 -7 9.60 -18.20 41 -18.20 51.20 0 8.60 2.40 10.60 12 9.80 9.20 -0.80 11 -2.60 14 -12.80 1.20 -4.80 5.40 -12.60 9.20 -17.40 3.80 -4.60 6.80 -10 6.80 -11.80 0 -1.80 3.60 -9 8 -16.20 4.40 -7.20 8 -14.40 8 -16 0 -1.60 3.60 -10.20 7.80 -19 4.40 -8.80 8.60 -19.40 9.20 -23.40 0.60 -4 4.20 -11.60 7.80 -17 3.60 -5.20 7.20 -13.20 8 -17.60 0.80 -4.40 4.20 -14.20 7.60 -21.80 3.20 -7.60 6.80 -18.80 7.60 -25 4.60 -31.20 8 -48.40 11 -55.40 2.20 -5.60 4.20 -21.40 6.20 -53.80 2 -31.20 4.20 -50.80 7 -61 2.80 -10.80 3.80 -20.60 3.60 -35 0 -11 0.80 -24.80 2 -30.80 1.20 -5.80 2.20 -20.60 2.20 -32.60 0 -24.20 2.60 -33.20 10.80 -38.60 6.80 -4.40 21.60 -3.20 32.40 2.60 4.20 2.20 12.80 6.60 18.80 9.40 6 3 14.20 8.20 18.20 11.60 10.40 9 18.80 14.40 32.80 21 7.20 3.60 15.80 10 21.80 16.40 l9.80 10.40 -1.40 25.40 c-2.20 44.20 -4.20 59 -9 68.20 -4.20 8 -10.20 38.80 -10.20 52 0 3 -2.60 10.40 -5.80 16.40 -3.60 6.80 -6.60 16.60 -8.20 26.60 -1.20 8.80 -4.80 21.80 -8 29 -3.20 7.20 -6.20 18 -6.80 24 -0.60 6.80 -2.80 12.80 -5.20 16 -2.20 2.80 -6 9 -8.20 14 -2.20 5 -7 15.40 -10.60 23 -3.80 7.80 -7.40 16.40 -8 19.40 -0.60 2.80 -3.40 8 -6.20 11.20 -2.60 3.20 -6.60 10.80 -9 16.80 -2.20 6 -6.20 13 -9 15.60 -2.80 2.60 -6 8.20 -7.20 12.40 -1 4.20 -4.40 10.60 -7.60 14.20 -3 3.40 -7.60 9.60 -10.20 13.40 -10.60 15.20 -28.60 36 -39 45.20 -6.20 5.40 -21.80 19.60 -34.60 31.40 -24.20 22.40 -45.20 37.80 -56.80 41.80 -3.60 1.20 -9.20 4.60 -12.60 7.80 -7.20 6.60 -14.80 9.80 -24 9.80 -5.60 0 -8.20 1.60 -14.80 9.60 -9.40 11 -10.20 15.80 -3 18.40 4 1.60 7.80 0.80 18.40 -3.80 7.40 -3.20 18.60 -6.80 24.80 -8 7 -1.20 14.60 -4.40 19.60 -8 4.80 -3.40 12.20 -6.60 17.40 -7.40 5.80 -0.80 11.40 -3.40 15.60 -7 3.60 -3.20 10.40 -7.20 15.20 -8.80 4.80 -1.80 11 -5.40 13.80 -8 2.80 -2.60 9.60 -6.40 15.40 -8.60 11 -4.20 17 -8.20 32.20 -21.60 5.20 -4.60 13.20 -10.20 17.80 -12.60 4.80 -2.40 20.40 -16.20 35 -30.80 28.60 -28.60 34.80 -36 41.20 -48.40 2.20 -4.40 6.40 -10.20 9.40 -13 3 -2.80 7.40 -9.20 10 -14.20 2.60 -5 6 -10.20 7.80 -11.60 1.60 -1.40 4.40 -6.80 6.20 -12.20 1.80 -5.40 5 -12 7.20 -14.80 2.20 -3 6.20 -10.60 8.80 -17.20 2.60 -6.60 6.60 -14.60 9 -18 2.20 -3.20 5 -10.80 6 -16.80 1.80 -11.40 4 -16.60 10.40 -25.20 2 -2.80 5 -12.20 6.60 -21 1.80 -8.80 5.40 -20.20 8 -25.40 3.20 -6.20 5.60 -15.60 7.20 -27.80 4.60 -38 12 -51.80 28 -51.80 6.80 0 9.80 1.80 23.20 13.60 8.60 7.60 20.60 17.40 26.80 21.80 6.20 4.60 12.40 11 13.80 14.40 3.60 9 1.60 23.60 -5.40 38.40 -3.40 7 -6.80 16 -7.40 20 -0.80 4.20 -3.60 10.80 -6.40 15 -3 4.20 -6.40 11.80 -8 16.80 -1.60 5.20 -5.60 12 -9.60 15.80 -4.80 4.80 -7.20 9 -8.20 15.20 -0.80 5.80 -3.20 10.60 -7 14.40 -3.40 3.20 -7.20 10 -8.80 15 -1.40 5 -5.40 12.60 -8.80 16.80 -3.20 4.40 -7 11.20 -8.20 15.20 -1.40 4 -3.80 8.40 -5.40 9.80 -1.80 1.40 -5.60 7.60 -8.80 13.60 -3 6.20 -7.80 13.40 -10.60 15.80 -2.80 2.60 -5.60 7.80 -6.20 11.40 -0.80 3.60 -4 10 -7.40 14.20 -3.40 4.40 -8 11.20 -10 15.20 -2.20 4.20 -6 9 -8.60 10.60 -5 3.40 -8.20 9.60 -10 20.40 -1.40 8 2.20 10.60 12.80 8.60 6 -1 12.20 -5.60 27.40 -19.60 10.80 -10 22 -22 24.60 -26.60 2.80 -4.60 11.80 -16 20.20 -25.60 8.40 -9.40 16.20 -20.40 17.60 -24.40 1.20 -4 4.20 -9 6.40 -11 2.40 -2.20 6.20 -7.80 8.80 -12.80 2.60 -5 6.40 -10.60 8.60 -12.80 2.40 -2 4.80 -6.40 5.60 -10 1.60 -8 6.20 -17 11.20 -22.40 2.20 -2.40 5.20 -9.60 6.80 -16 1.80 -6.60 5.20 -15.40 7.80 -19.80 2.60 -4.40 5.60 -13.40 6.80 -19.80 1.20 -6.60 4.40 -15.40 7 -20 2.60 -4.60 5.20 -11.60 6 -16 2 -10.40 9 -17.20 18.20 -17.20 6 0 9 1.60 16.20 9 4.80 5 10 9 11.40 9 1.60 0 6.80 3 11.60 6.80 4.80 3.60 12.60 8.60 17.40 11 13.20 6.60 24 17.60 25.60 25.20 1.40 8.40 -3.20 22.80 -11 34.40 -3.60 5.40 -6.60 13.40 -8.20 21.80 -1.20 7.40 -4.80 18.40 -8 24.60 -3 6.20 -6.20 14.40 -7 18.20 -0.80 3.80 -4.40 12.40 -8 19 -4 7.40 -7 16.20 -7.60 23 -1 7.40 -3.20 13.40 -7.20 19 -3.20 4.40 -6.80 12.20 -8.20 17 -1.20 5 -4.80 12.60 -7.80 17 -3 4.40 -6.60 12 -8 17 -1.40 5 -5.20 12.40 -8.60 16.80 -3.40 4.20 -7 11.40 -8 16 -1 4.40 -4.80 12.20 -8.60 16.80 -3.80 4.80 -7.40 11.20 -8 14.40 -0.60 3 -4.20 9 -7.80 13.20 -3.60 4.40 -7.20 11.20 -8 15.40 -0.80 4 -4 10.40 -7 14 -3.20 3.40 -7.20 9.60 -9.20 13.40 -1.80 3.80 -5.20 8.80 -7.20 11 -2 2.20 -5 7.60 -6.80 12 -1.80 4.40 -5.40 10.20 -8 13 -4.60 4.80 -29 36.60 -41.60 53.60 -3.40 4.60 -10.60 11.40 -16 14.80 -6 3.80 -11.20 9.20 -13.80 14.40 -6.60 13.20 -18.80 25.80 -31.20 32.20 -9.60 5.20 -11.60 7.20 -13 13.60 -2.20 9 0.60 13.40 8.60 13.40 8.20 0 28 -9.40 36 -17 3.80 -3.80 11 -8.20 15.80 -10 8.40 -2.80 15.60 -8.20 30.20 -21.80 19 -17.80 46 -40.60 51.60 -43.60 3.40 -1.80 8 -7 10.60 -12 4.40 -8.60 11.60 -18.40 26.80 -36 13.40 -15.60 18.20 -22.20 22 -29.60 2 -3.80 7 -10.80 11.20 -15.40 4.40 -4.80 7.80 -9.40 7.80 -10.40 0 -1 3.20 -5.60 7 -10.20 3.80 -4.60 7 -10 7 -12 0 -1.80 3.60 -8.80 8 -15.20 4.40 -6.60 8 -13.80 8 -16.40 0 -6.20 5.20 -18.40 10.20 -23.60 2.20 -2.40 5.40 -9.60 7 -16 1.80 -6.40 5.60 -15.20 8.80 -19.80 3.20 -4.40 6.20 -12 6.80 -17.20 0.80 -5.20 4.20 -13.60 7.60 -19 4.60 -7.20 6.60 -13.60 8 -24.60 1 -8.60 4.40 -20.80 7.80 -28.60 4.40 -10 6.40 -18.60 7.80 -34 3.60 -38.20 7.20 -48 18.20 -50.60 3.80 -1 6.80 0 11 3.60 3.20 2.60 9.40 5.40 13.80 6 4.40 0.80 10.20 3.20 13 5.40 2.80 2.20 7.60 5.60 10.80 7.60 3 1.80 8.40 5.40 12 7.80 3.40 2.40 11.20 7 17.20 10.40 12 6.20 29.80 23.80 30.20 29.60 0.20 2 0 105.80 -0.20 230.60 -0.20 226.60 -0.20 227 -4.40 231.40 -2.20 2.40 -7.40 6.80 -11.40 9.60 l-7.40 5 -399.80 0 -399.60 0.20 -10.60 -4.40 c-8.80 -3.80 -11.60 -4 -15.80 -2.20 -6.80 3.20 -8 7 -5.20 16.60 2.80 9.40 7.60 11.80 23.80 11.80 21.80 0 32.40 6 32.40 18.20 0 2.80 -1.80 6.80 -4 8.80 -3.60 3.20 -8.80 3.80 -47.60 4.20 -253 3.20 -236 2.80 -248 7.20 -10 3.80 -15.80 4.20 -65.20 4.60 -29.80 0.20 -76.20 1.20 -103.20 2.60 -27 1.20 -71.40 2.80 -99 3.40 -42.60 1.20 -51.80 2 -62.60 5.40 -10.60 3.60 -15.60 4 -32 3 -13.20 -0.80 -23.60 -0.20 -32.40 1.60 -9.80 2.20 -30.20 2.80 -85 2.60 -39.60 0 -73.80 -0.60 -76 -1z m284 -287.80 c-46.20 -11.20 -82.80 -21 -105.80 -28.20 -12 -3.80 -33 -8.60 -46.60 -10.80 -29 -4.40 -68.60 -16.20 -127.60 -38 -8.80 -3.40 -21.80 -7.80 -29 -9.80 -7.20 -2 -17.60 -5.80 -23 -8 -5.60 -2.40 -18.60 -7.60 -29 -11.40 -18.40 -6.80 -36 -13.40 -80 -30.20 -11.60 -4.40 -30.80 -12.20 -43 -17.40 -21.40 -9.20 -54 -22.20 -81.60 -32.20 -7.40 -2.80 -35 -15.60 -61.40 -28.60 -44.80 -22.20 -58 -27.60 -58 -24.20 0 4 39.60 27.80 81 49 28.80 14.60 36.80 18.20 77.60 34 12.80 5 34.60 14 48.20 20 13.60 6 25.60 11 26.60 11 1 0 12.60 4.20 25.60 9.20 13.20 5 32.60 12.20 43 15.80 10.40 3.60 32 11.20 48 17 16 5.60 36.40 12.40 45.60 15.20 9.20 2.60 20 6.20 24 8 4 1.60 15 4.80 24.20 7 9.40 2.20 21 5.60 25.80 7.80 4.80 2.20 16.20 5.40 25.20 7.20 8.80 1.80 19.80 4.60 24.20 6.20 4.40 1.60 19.80 4.60 34 6.80 14.40 2.20 36.40 6.60 49 9.80 12.60 3.20 26.60 6.40 31 7 4.40 0.80 16.20 3.60 26 6.40 18.20 5.20 34.20 8 47 8.20 3.80 0 -5.60 -3 -21 -6.80z m237.80 -1303.60 c14.40 -4.40 22 -11.20 26 -23.60 8.60 -25.80 6 -48.60 -9.80 -80.60 -4.80 -9.80 -11 -23.20 -13.80 -29.40 -8.40 -19.20 -10.40 -16.60 -19 25.40 -3.40 16.60 -10 46.20 -14.40 66 -4.60 19.80 -8.80 38 -9.20 40.60 -1 4.20 -0.60 4.40 14.80 4.40 8.80 0 20.20 -1.20 25.40 -2.80z m129.60 -120.40 c15.20 -2.80 20 -3 31.60 -1 24.40 4.40 28.60 0.40 70.20 -69.40 12 -20 23.60 -40.20 25.60 -45 6.60 -14.80 20 -60 22 -73.60 2.60 -19 5.80 -24 19.60 -30.40 25 -11.40 74 -57.40 113.20 -105.80 10.60 -13.20 20.40 -29.20 18.80 -30.80 -0.60 -0.80 -10.80 7.20 -22.80 17.40 -40.60 35.20 -66.80 52.80 -112.80 76 -30.20 15 -78.80 29 -93.60 26.80 -18 -2.60 -85 -26.60 -115 -41 -22.20 -10.40 -24.20 -11.20 -22.20 -8 5.60 9 98.20 55.60 125.40 63 31.60 8.80 59.20 19.40 66.60 25.60 19.20 15.80 16.40 38.40 -10.20 79.60 -15 23 -26.20 33.20 -47.80 44 -14.20 7 -20.60 8.80 -47.20 13 -19.60 3 -43.80 5.20 -66.80 6 -35 1 -46.40 2 -44.60 3.80 0.60 0.60 8.80 2.40 18.60 4 23.60 4.20 35 9.20 35 15.60 0 6 -5 10.60 -13.40 12.40 -3.60 0.60 -6.60 2 -6.60 3 0 2.20 13.20 14.60 17.60 16.40 6 2.40 20.20 1.80 38.80 -1.60z m-270.80 -220.60 c8.60 -2.20 19.80 -4.60 25 -5.40 6.40 -0.80 12.80 -3.60 18.60 -8 10 -7.80 22.60 -14.80 26.20 -14.80 3.80 0 13.20 -4 12.20 -5.20 -0.60 -0.40 -3.60 0 -6.80 1.40 -3.20 1.20 -15.80 4.80 -28 7.80 -26.80 6.80 -52 16.60 -60 23 -7.20 6 -6.40 6 12.80 1.20z"/>
 </g>
</svg>